# xmcd
#
# Track frame offsets:
#	150
#	25250
#	40315
#	56082
#	74350
#	89617
#	105120
#	120815
#	137112
#	153562
#	170640
#	185070
#	202577
#	215077
#	230852
#
# Disc length: 3361 seconds
#
# Revision: 1
# Processed by: cddbd v1.5.2PL0 Copyright (c) Steve Scherf et al.
# Submitted via: EasyCDDAExtractor 15.3.0.1
#
DISCID=d50d1f0f
DTITLE=DKDA - Sueños De Juventud
DYEAR=2000
DGENRE=Latin
TTITLE0=Amame Como Soy
TTITLE1=No Me Limites
TTITLE2=La Fuerza Del Amor
TTITLE3=Momento
TTITLE4=No Se Me Pega La Gana
TTITLE5=Creer En Ti
TTITLE6=El Uno Para El Otro
TTITLE7=Llega La Vida
TTITLE8=DKDA
TTITLE9=Jovenes Como Tu
TTITLE10=Agridulce Amor
TTITLE11=Polvora Mojada
TTITLE12=Creo En Tu Amor
TTITLE13=Caminando Entre Nubes
TTITLE14=Soy Tuya
EXTD=
EXTT0=
EXTT1=
EXTT2=
EXTT3=
EXTT4=
EXTT5=
EXTT6=
EXTT7=
EXTT8=
EXTT9=
EXTT10=
EXTT11=
EXTT12=
EXTT13=
EXTT14=
PLAYORDER=
